<svg xmlns="http://www.w3.org/2000/svg" xmlns:xlink="http://www.w3.org/1999/xlink" viewBox="0 0 301 301"><defs><style>.cls-1,.cls-2{fill:none;}.cls-2{stroke:#fff;stroke-miterlimit:10;}.cls-2,.cls-6{opacity:0;}.cls-3{fill:#009eac;}.cls-4{clip-path:url(#clip-path);}.cls-5,.cls-6{fill:#fff;}</style><clipPath id="clip-path"><rect class="cls-1" x="108.52" y="65.27" width="83.96" height="170.46"/></clipPath></defs><g id="Capa_2" data-name="Capa 2"><g id="Capa_1-2" data-name="Capa 1"><g id="info"><rect class="cls-2" x="0.5" y="0.5" width="300" height="300"/><path id="bg-2" class="cls-3" d="M150.5,11.12h0A139.38,139.38,0,0,1,289.88,150.5h0A139.38,139.38,0,0,1,150.5,289.88h0A139.38,139.38,0,0,1,11.12,150.5h0A139.38,139.38,0,0,1,150.5,11.12Z"/><g id="icn"><g class="cls-4"><g id="Group_664" data-name="Group 664"><path id="Path_912" data-name="Path 912" class="cls-5" d="M153.24,188.08a23.83,23.83,0,1,0,23.83,23.82h0a23.83,23.83,0,0,0-23.83-23.82"/><path id="Path_913" data-name="Path 913" class="cls-6" d="M120.91,76.89a8.51,8.51,0,0,1,8.51,8.51h0v84.17h63.06V158H177.07a8.51,8.51,0,0,1-8.51-8.51h0v-64a8.51,8.51,0,0,1,8.51-8.51h12.39V65.27H108.52V76.89Z"/></g></g></g><rect class="cls-5" x="129.42" y="65.27" width="47.65" height="104.3" rx="12.51" transform="translate(306.49 234.84) rotate(180)"/></g></g></g></svg>